<?xml version="1.0" standalone="no"?>
<!DOCTYPE svg PUBLIC "-//W3C//DTD SVG 20010904//EN"
 "http://www.w3.org/TR/2001/REC-SVG-20010904/DTD/svg10.dtd">
<svg version="1.0" xmlns="http://www.w3.org/2000/svg"
 width="200.000000pt" height="200.000000pt" viewBox="0 0 200.000000 200.000000"
 preserveAspectRatio="xMidYMid meet">
<metadata>
Created by potrace 1.14, written by Peter Selinger 2001-2017
</metadata>
<g transform="translate(0.000000,200.000000) scale(0.100000,-0.100000)"
fill="#000000" stroke="none">
<path d="M1066 1763 c16 -12 14 -13 -16 -7 -19 4 -37 7 -40 6 -24 0 -30 -5
-30 -22 0 -11 6 -18 13 -16 6 1 9 1 5 -1 -5 -3 -8 -11 -8 -19 0 -8 -6 -11 -15
-8 -8 4 -12 11 -9 16 12 19 -20 28 -38 11 -16 -14 -18 -12 -27 18 -5 19 -10
28 -10 22 -1 -7 -10 -13 -21 -13 -11 0 -20 -5 -20 -11 0 -7 -10 -9 -25 -7 -16
4 -22 1 -17 -6 15 -24 8 -64 -19 -112 -16 -29 -36 -57 -44 -64 -13 -11 -15 -7
-15 23 0 36 14 58 23 35 2 -7 8 -1 12 15 4 15 13 27 21 27 9 0 14 11 14 33 0
17 -4 28 -8 22 -4 -5 -18 -11 -32 -12 l-25 -2 23 16 c21 15 31 43 15 43 -10 0
-35 -16 -33 -21 4 -11 -14 -39 -24 -38 -28 3 -38 -3 -47 -30 -6 -17 -17 -28
-26 -27 -9 0 -22 -8 -27 -20 -6 -11 -17 -19 -24 -16 -6 2 -12 -1 -12 -7 0 -6
6 -11 13 -12 6 0 2 -5 -10 -11 -13 -6 -23 -19 -23 -29 0 -9 -4 -19 -9 -21 -4
-1 -5 -12 0 -23 6 -17 8 -17 8 -2 1 9 5 17 11 17 5 0 16 12 24 28 l15 27 1
-25 c1 -25 1 -25 10 -2 13 30 18 28 12 -5 -6 -32 -36 -75 -46 -66 -3 3 -6 1
-6 -5 0 -7 7 -12 15 -12 10 0 15 -10 15 -27 l0 -26 20 23 c17 19 20 20 20 6 0
-13 5 -16 22 -11 18 6 20 4 13 -11 -4 -11 -9 -34 -10 -52 -2 -17 -15 -53 -29
-78 -28 -50 -34 -76 -14 -56 17 17 31 15 44 -6 10 -15 8 -18 -7 -19 -11 -1
-19 3 -19 8 0 6 -6 7 -12 2 -13 -8 -18 -9 -38 -12 -5 0 -10 -6 -10 -12 0 -7
12 -10 29 -7 24 3 27 1 23 -15 -4 -17 -2 -18 17 -8 12 7 18 17 15 23 -4 6 -3
8 4 4 15 -9 37 42 37 84 0 27 6 39 28 53 35 22 52 63 39 98 -10 27 4 65 37
102 18 21 79 49 91 42 9 -6 43 43 36 53 -2 4 2 16 10 27 8 10 14 13 14 7 0 -7
7 -12 15 -12 8 0 15 -5 15 -11 0 -6 -7 -9 -15 -5 -8 3 -19 -3 -25 -14 -16 -29
-13 -32 33 -25 106 14 152 14 169 -2 15 -14 20 -14 40 -1 13 7 33 13 46 12 25
-2 26 0 10 29 -10 20 -10 21 5 8 10 -7 17 -20 17 -29 0 -11 6 -9 23 9 26 27
27 26 -48 102 -25 26 -52 47 -58 47 -7 0 -25 7 -40 15 -16 8 -47 14 -69 13
-37 -1 -39 -3 -22 -15z m-187 -53 c1 20 3 22 11 10 15 -24 5 -104 -14 -108 -9
-2 -16 -7 -16 -10 0 -4 -9 -18 -20 -32 -19 -24 -19 -24 -13 -2 3 12 9 25 14
28 5 3 9 13 9 22 -1 13 -7 9 -25 -13 -13 -16 -27 -26 -31 -23 -8 9 48 78 64
78 9 0 11 11 8 38 -4 29 -4 32 3 12 l9 -25 1 25z m-144 -40 c3 -6 -1 -7 -9 -4
-18 7 -21 14 -7 14 6 0 13 -4 16 -10z m476 -27 c13 -16 12 -17 -3 -4 -17 13
-22 21 -14 21 2 0 10 -8 17 -17z m-30 -10 c13 -16 12 -17 -3 -4 -10 7 -18 15
-18 17 0 8 8 3 21 -13z m-164 -25 c-3 -7 -5 -2 -5 12 0 14 2 19 5 13 2 -7 2
-19 0 -25z m-304 -223 c-3 -9 -8 -14 -10 -11 -3 3 -2 9 2 15 9 16 15 13 8 -4z
m-40 -129 c4 -10 1 -13 -8 -9 -8 3 -12 9 -9 14 7 12 11 11 17 -5z"/>
<path d="M585 1490 c-3 -5 -1 -10 4 -10 6 0 11 5 11 10 0 6 -2 10 -4 10 -3 0
-8 -4 -11 -10z"/>
<path d="M555 1460 c-3 -5 -1 -10 4 -10 6 0 11 5 11 10 0 6 -2 10 -4 10 -3 0
-8 -4 -11 -10z"/>
<path d="M1058 1303 c-22 -5 -24 -29 -3 -37 8 -3 15 -9 15 -14 0 -8 -28 -14
-128 -26 -13 -1 -30 -10 -40 -19 -15 -16 -12 -17 53 -17 50 0 73 5 87 17 17
15 18 15 18 0 0 -36 77 -14 109 31 l21 30 -23 14 c-24 16 -82 27 -109 21z"/>
<path d="M1263 1278 c-18 -9 -20 -16 -16 -47 5 -34 36 -71 58 -70 6 0 4 3 -3
6 -9 3 -4 10 13 19 19 10 32 11 46 4 16 -9 19 -7 19 9 0 14 -9 23 -27 27 -46
10 -49 12 -25 20 33 10 24 38 -13 41 -17 1 -40 -3 -52 -9z"/>
<path d="M501 1176 c-9 -10 -7 -17 5 -27 13 -11 17 -10 25 4 12 20 29 22 29 3
0 -7 7 -19 15 -26 22 -18 18 3 -6 34 -22 28 -50 34 -68 12z"/>
<path d="M573 1098 c-24 -12 -32 -61 -12 -73 6 -4 9 0 7 11 -2 11 4 20 15 22
11 2 17 -3 17 -16 0 -21 26 -49 37 -39 3 4 1 12 -5 19 -6 7 -12 28 -14 47 -3
39 -13 44 -45 29z"/>
<path d="M1236 1043 c-12 -13 -81 -21 -93 -12 -14 12 -33 4 -33 -15 0 -8 7
-19 15 -26 13 -11 13 -15 3 -21 -9 -6 -7 -8 7 -7 33 2 95 -12 95 -22 0 -15 28
-12 37 3 4 7 23 23 41 36 18 13 31 28 29 34 -3 10 -94 37 -101 30z"/>
<path d="M1340 954 c0 -9 9 -27 20 -41 14 -18 20 -21 20 -10 0 8 6 18 13 20 8
4 4 12 -13 26 -30 25 -40 26 -40 5z"/>
<path d="M625 930 c-3 -6 1 -7 9 -4 18 7 21 14 7 14 -6 0 -13 -4 -16 -10z"/>
<path d="M1064 872 c-23 -22 -10 -27 58 -24 34 2 97 4 138 6 102 5 102 5 95
15 -7 12 -8 12 -159 15 -91 2 -121 -1 -132 -12z"/>
<path d="M1206 821 c-9 -14 54 -25 67 -12 8 8 5 11 -10 11 -12 0 -28 3 -36 6
-8 3 -18 1 -21 -5z"/>
<path d="M810 731 c0 -7 -4 -9 -10 -6 -5 3 -23 -1 -39 -10 -22 -11 -37 -12
-55 -5 -14 5 -26 7 -26 3 0 -4 33 -38 73 -77 48 -47 74 -79 75 -95 0 -13 6
-27 13 -31 6 -5 8 -13 4 -20 -5 -7 -4 -11 1 -8 5 2 20 -6 33 -19 l25 -24 -65
25 c-129 49 -174 68 -189 80 -8 7 -28 21 -45 31 l-30 18 19 -21 c11 -12 15
-22 9 -22 -13 0 -50 29 -38 30 6 0 -1 7 -14 14 -20 11 -27 11 -42 -2 -17 -15
-17 -16 -1 -30 16 -13 16 -13 0 -8 -10 3 -20 1 -23 -5 -4 -5 -10 -7 -15 -4 -5
3 -14 -5 -21 -17 -6 -13 -27 -36 -45 -51 -19 -16 -39 -38 -45 -50 -6 -12 7 -3
31 21 44 44 60 51 60 29 0 -8 10 -22 21 -33 36 -32 185 -198 170 -189 -11 6
-13 4 -7 -11 5 -14 -1 -11 -23 10 -17 16 -28 32 -26 36 8 13 -38 36 -107 53
-37 10 -74 17 -83 17 -28 0 -6 -19 31 -26 21 -4 41 -16 51 -30 9 -14 44 -40
78 -60 91 -50 103 -73 16 -29 -41 20 -106 47 -145 60 -62 20 -74 21 -96 10
-14 -7 -33 -16 -42 -19 -10 -3 -30 -31 -46 -62 -24 -47 -30 -53 -34 -36 -4 12
0 26 8 33 22 18 16 28 -14 24 -47 -6 -51 -8 -127 -84 -63 -63 -75 -80 -75
-108 l0 -33 821 0 822 0 -19 23 -19 22 26 -22 c15 -14 38 -23 59 -23 31 0 32
1 17 18 -26 29 -20 34 8 7 20 -21 34 -25 80 -25 50 0 55 2 55 23 0 47 -40 162
-61 176 -12 8 -52 41 -90 73 -38 32 -82 61 -97 65 -15 3 -52 19 -84 35 -31 15
-60 28 -65 28 -4 0 26 -34 67 -75 41 -41 71 -75 66 -75 -5 0 -57 47 -115 104
-98 96 -180 159 -207 159 -6 0 4 23 22 51 19 27 32 51 30 53 -3 4 -55 9 -161
17 -22 2 -48 7 -59 11 -11 5 -21 3 -27 -6 -6 -10 -9 -10 -9 -1 0 6 -9 12 -21
12 -11 0 -17 5 -14 10 3 6 -3 10 -14 10 -12 0 -21 4 -21 10 0 5 -7 7 -15 4 -8
-4 -15 -1 -15 5 0 6 -13 11 -30 11 -17 0 -29 5 -27 11 1 6 -5 13 -13 14 -8 2
-30 7 -47 10 -23 5 -33 4 -33 -4z m-270 -151 c-20 -13 -33 -13 -25 0 3 6 14
10 23 10 15 0 15 -2 2 -10z m732 -122 c15 -24 35 -54 44 -68 11 -17 8 -15 -12
7 -34 37 -76 103 -66 103 4 0 19 -19 34 -42z m-601 -19 c21 -6 21 -7 3 -8 -29
-1 -59 23 -49 39 7 11 10 9 15 -5 4 -11 18 -23 31 -26z m531 28 c-6 -7 -14
-39 -18 -70 -4 -32 -11 -60 -15 -63 -5 -2 -30 6 -56 20 l-48 24 30 7 c51 11
53 13 80 55 14 22 28 40 31 40 4 0 2 -6 -4 -13z m129 -189 c21 -25 42 -58 36
-58 -1 0 -21 18 -42 40 -21 22 -33 40 -26 40 7 0 21 -10 32 -22z m-66 -6 c-3
-3 -11 0 -18 7 -9 10 -8 11 6 5 10 -3 15 -9 12 -12z m296 -156 c15 -23 9 -19
-23 14 -23 25 -63 65 -88 89 -28 27 -20 22 23 -14 37 -32 77 -72 88 -89z
m-176 83 c11 -16 1 -19 -13 -3 -7 8 -8 14 -3 14 5 0 13 -5 16 -11z m378 -93
c3 3 13 -9 22 -28 16 -32 16 -32 -2 -13 -10 11 -27 29 -38 39 -11 11 -13 15
-4 8 9 -6 18 -9 22 -6z m-162 -43 c13 -16 12 -17 -3 -4 -10 7 -18 15 -18 17 0
8 8 3 21 -13z"/>
<path d="M457 682 c-19 -20 -23 -37 -7 -27 10 6 33 45 27 45 -2 0 -11 -8 -20
-18z"/>
<path d="M1337 615 c-14 -25 -23 -45 -19 -45 10 0 56 79 50 85 -2 2 -16 -16
-31 -40z"/>
<path d="M1427 456 c10 -14 59 -44 108 -67 51 -23 115 -63 149 -92 34 -30 54
-42 47 -29 -29 55 -235 203 -260 188 -4 -3 -17 1 -27 9 -29 22 -37 18 -17 -9z"/>
<path d="M397 421 c-4 -17 -2 -18 14 -8 22 14 25 27 5 27 -7 0 -16 -9 -19 -19z"/>
<path d="M470 375 c7 -8 20 -15 29 -15 13 1 13 3 -3 15 -26 19 -42 19 -26 0z"/>
<path d="M97 191 c-41 -26 -46 -36 -10 -17 17 9 35 20 38 26 8 13 6 12 -28 -9z"/>
<path d="M29 143 c-13 -16 -12 -17 4 -4 16 13 21 21 13 21 -2 0 -10 -8 -17
-17z"/>
</g>
</svg>
